<svg xmlns="http://www.w3.org/2000/svg" xmlns:xlink="http://www.w3.org/1999/xlink" width="500" zoomAndPan="magnify" viewBox="0 0 375 374.999991" height="500" preserveAspectRatio="xMidYMid meet" version="1.0"><defs><g/><clipPath id="83dbb80bb1"><path d="M 8 15.460938 L 367 15.460938 L 367 359.710938 L 8 359.710938 Z M 8 15.460938 " clip-rule="nonzero"/></clipPath></defs><g clip-path="url(#83dbb80bb1)"><path fill="#000000" d="M 282.664062 15.238281 C 236.546875 15.238281 199.167969 52.675781 199.167969 98.84375 C 199.167969 103.238281 199.519531 107.632812 200.203125 111.972656 L 101.03125 111.972656 L 101.03125 112.101562 L 71.722656 112.101562 C 71.347656 111.636719 71.015625 111.148438 70.625 110.683594 C 56.960938 94.578125 39.300781 85.15625 25.222656 74.679688 C 23.429688 73.273438 21.152344 72.566406 18.867188 72.558594 C 18.753906 72.558594 18.648438 72.558594 18.535156 72.558594 C 12.960938 72.738281 8.546875 77.308594 8.546875 82.894531 C 8.546875 86.285156 10.1875 89.484375 12.976562 91.414062 C 28.597656 103.050781 44.480469 111.972656 54.777344 124.113281 C 65.023438 136.199219 71.054688 152.628906 76.378906 169.957031 C 83.019531 191.578125 88.726562 213.496094 93.480469 235.617188 C 80.5 237.234375 70.511719 248.058594 70.511719 261.527344 C 70.511719 276.121094 82.199219 287.757812 96.761719 287.757812 L 282.101562 287.757812 C 287.832031 287.757812 292.449219 283.136719 292.449219 277.398438 C 292.449219 271.660156 287.832031 267.039062 282.101562 267.039062 L 96.761719 267.039062 C 94.933594 267.039062 93.625 266.46875 92.730469 265.574219 C 91.835938 264.679688 91.269531 263.367188 91.269531 261.535156 C 91.269531 259.707031 91.835938 258.371094 92.730469 257.484375 C 93.625 256.597656 94.933594 256.035156 96.761719 256.035156 L 113.1875 256.035156 C 113.253906 256.035156 113.320312 256.027344 113.375 256.019531 L 113.375 256.035156 L 244.316406 245.128906 C 269.179688 244 290.449219 226.28125 296 201.988281 L 296.015625 201.957031 L 301.84375 180.226562 C 339.539062 171.300781 366.15625 137.625 366.15625 98.84375 C 366.15625 52.675781 328.769531 15.246094 282.664062 15.238281 Z M 282.664062 35.871094 C 317.394531 35.871094 345.554688 64.0625 345.554688 98.835938 C 345.554688 98.835938 345.554688 98.835938 345.554688 98.84375 C 345.546875 133.617188 317.394531 161.800781 282.664062 161.800781 C 247.933594 161.800781 219.78125 133.617188 219.773438 98.84375 C 219.765625 64.070312 247.917969 35.871094 282.664062 35.871094 Z M 305.753906 65.371094 C 303.550781 64.988281 301.179688 65.753906 299.59375 67.324219 L 287.574219 79.359375 C 287.523438 79.394531 287.484375 79.425781 287.441406 79.457031 L 282.664062 84.226562 L 277.867188 79.425781 L 267.410156 68.9375 C 265.359375 66.886719 262.003906 66.300781 259.394531 67.550781 L 253.128906 70.570312 C 251.113281 71.539062 249.617188 73.519531 249.234375 75.722656 C 248.851562 77.929688 249.601562 80.289062 251.167969 81.875 C 251.167969 81.875 251.1875 81.882812 251.1875 81.890625 L 263.230469 93.96875 C 263.246094 93.984375 263.261719 94.011719 263.28125 94.035156 L 268.058594 98.820312 L 252.789062 114.09375 C 250.738281 116.136719 250.152344 119.507812 251.40625 122.121094 L 254.40625 128.410156 L 254.421875 128.410156 C 255.386719 130.429688 257.339844 131.925781 259.550781 132.308594 C 261.761719 132.691406 264.109375 131.941406 265.695312 130.371094 C 265.695312 130.371094 265.710938 130.363281 265.710938 130.363281 L 277.835938 118.230469 L 282.632812 113.445312 L 287.410156 118.246094 C 287.425781 118.253906 287.425781 118.261719 287.441406 118.277344 L 297.886719 128.753906 C 299.933594 130.804688 303.273438 131.390625 305.882812 130.136719 L 312.167969 127.132812 C 312.167969 127.132812 312.167969 127.125 312.167969 127.117188 C 314.183594 126.148438 315.679688 124.171875 316.058594 121.964844 C 316.441406 119.757812 315.695312 117.398438 314.125 115.8125 L 314.109375 115.8125 L 302.171875 103.824219 C 302.121094 103.769531 302.0625 103.703125 302.007812 103.652344 L 297.226562 98.851562 L 302.007812 94.082031 C 302.023438 94.074219 302.023438 94.066406 302.039062 94.050781 L 312.5 83.59375 C 314.546875 81.550781 315.132812 78.179688 313.882812 75.570312 L 310.882812 69.292969 C 310.882812 69.292969 310.867188 69.285156 310.867188 69.285156 C 309.914062 67.25 307.964844 65.753906 305.753906 65.371094 Z M 144.332031 132.675781 L 206.304688 132.675781 C 219.277344 162.003906 247.863281 181.324219 279.882812 182.390625 L 276.074219 196.617188 L 276.054688 196.632812 C 275.992188 196.871094 275.941406 197.113281 275.894531 197.351562 C 272.398438 212.585938 258.988281 223.765625 243.367188 224.484375 C 243.132812 224.5 242.871094 224.507812 242.636719 224.53125 L 114.53125 235.183594 C 109.507812 211.152344 103.425781 187.332031 96.210938 163.84375 C 93.082031 153.664062 89.554688 143.019531 84.636719 132.789062 L 144.324219 132.789062 L 144.324219 132.675781 Z M 121.097656 298.664062 C 104.507812 298.777344 91.121094 312.269531 91.113281 328.882812 C 91.113281 345.582031 104.628906 359.113281 121.300781 359.113281 C 137.96875 359.105469 151.476562 345.574219 151.476562 328.882812 C 151.46875 312.191406 137.960938 298.671875 121.300781 298.664062 C 121.234375 298.664062 121.160156 298.664062 121.097656 298.664062 Z M 251.640625 298.664062 C 235.054688 298.777344 221.667969 312.269531 221.660156 328.882812 C 221.660156 345.582031 235.175781 359.113281 251.851562 359.113281 C 268.53125 359.113281 282.046875 345.582031 282.046875 328.882812 C 282.039062 312.191406 268.523438 298.664062 251.851562 298.664062 C 251.789062 298.664062 251.707031 298.664062 251.640625 298.664062 Z M 120.917969 319.089844 C 121.046875 319.089844 121.171875 319.089844 121.300781 319.089844 C 126.695312 319.097656 131.070312 323.476562 131.078125 328.882812 C 131.078125 334.292969 126.703125 338.679688 121.300781 338.6875 C 115.886719 338.6875 111.507812 334.300781 111.507812 328.882812 C 111.507812 323.625 115.667969 319.292969 120.917969 319.089844 Z M 251.46875 319.089844 C 251.601562 319.089844 251.722656 319.089844 251.851562 319.089844 C 257.257812 319.089844 261.636719 323.46875 261.644531 328.882812 C 261.644531 334.300781 257.265625 338.6875 251.851562 338.6875 C 246.441406 338.6875 242.058594 334.300781 242.058594 328.882812 C 242.050781 323.625 246.210938 319.292969 251.46875 319.089844 Z M 251.46875 319.089844 " fill-opacity="1" fill-rule="nonzero"/></g><g fill="#000000" fill-opacity="1"><g transform="translate(274.004576, 109.371855)"><g><path d="M 4.140625 0.171875 C 3.148438 0.171875 2.375 -0.0976562 1.8125 -0.640625 C 1.257812 -1.179688 0.984375 -1.863281 0.984375 -2.6875 C 0.984375 -3.53125 1.269531 -4.210938 1.84375 -4.734375 C 2.425781 -5.253906 3.191406 -5.515625 4.140625 -5.515625 C 5.078125 -5.515625 5.832031 -5.238281 6.40625 -4.6875 C 6.988281 -4.132812 7.28125 -3.46875 7.28125 -2.6875 C 7.28125 -1.8125 7.007812 -1.113281 6.46875 -0.59375 C 5.925781 -0.0820312 5.148438 0.171875 4.140625 0.171875 Z M 4.140625 0.171875 "/></g></g></g></svg>